<svg xmlns:svg="http://www.w3.org/2000/svg" xmlns="http://www.w3.org/2000/svg" xmlns:xlink="http://www.w3.org/1999/xlink" width="20" height="20" id="svg12731" version="1.1">
  <style id="style3178">
    .s0{stop-color:#5e99d3;stop-opacity:1;}.s1{stop-color:#fbfbfb;stop-opacity:1;}
  </style>
  <defs id="defs12733">
    <linearGradient id="linearGradient13521">
      <stop offset="0" id="stop13523" class="s0"/>
      <stop id="stop13547" offset="1" class="s1"/>
    </linearGradient>
    <linearGradient xlink:href="#linearGradient13521" id="linearGradient13527" x1="61.9" y1="985.7" x2="61.9" y2="1041" gradientUnits="userSpaceOnUse"/>
    <linearGradient xlink:href="#linearGradient13521" id="linearGradient13535" x1="65.9" y1="51.9" x2="65.9" y2="96.5" gradientUnits="userSpaceOnUse"/>
    <filter id="filter14001" color-interpolation-filters="sRGB">
      <feFlood id="feFlood14003" flood-opacity="0.4" flood-color="rgb(0,0,0)" result="flood"/>
      <feComposite in2="SourceGraphic" id="feComposite14005" in="flood" operator="in" result="composite1"/>
      <feGaussianBlur id="feGaussianBlur14007" stdDeviation="2.4" result="blur"/>
      <feOffset id="feOffset14009" dx="0" dy="5" result="offset"/>
      <feComposite in2="offset" id="feComposite14011" in="SourceGraphic" operator="over" result="composite2"/>
    </filter>
    <linearGradient xlink:href="#linearGradient13521" id="linearGradient14049" gradientUnits="userSpaceOnUse" x1="65.9" y1="51.9" x2="65.9" y2="96.5"/>
    <linearGradient xlink:href="#linearGradient13521" id="linearGradient14051" gradientUnits="userSpaceOnUse" x1="61.9" y1="985.7" x2="61.9" y2="1041"/>
    <linearGradient xlink:href="#linearGradient13521" id="linearGradient14056" gradientUnits="userSpaceOnUse" x1="65.9" y1="51.9" x2="65.9" y2="96.5"/>
    <linearGradient xlink:href="#linearGradient13521" id="linearGradient14058" gradientUnits="userSpaceOnUse" x1="61.9" y1="985.7" x2="61.9" y2="1041"/>
    <linearGradient xlink:href="#linearGradient13521" id="linearGradient14062" gradientUnits="userSpaceOnUse" x1="65.9" y1="51.9" x2="65.9" y2="96.5" gradientTransform="translate(0,924.36218)"/>
    <linearGradient xlink:href="#linearGradient13521" id="linearGradient14099" gradientUnits="userSpaceOnUse" gradientTransform="translate(0,924.36218)" x1="65.9" y1="51.9" x2="65.9" y2="96.5"/>
    <linearGradient xlink:href="#linearGradient13521" id="linearGradient14101" gradientUnits="userSpaceOnUse" x1="61.9" y1="985.7" x2="61.9" y2="1041"/>
    <linearGradient xlink:href="#linearGradient13521" id="linearGradient3172" gradientUnits="userSpaceOnUse" gradientTransform="translate(0,924.36218)" x1="65.9" y1="51.9" x2="65.9" y2="96.5"/>
    <linearGradient xlink:href="#linearGradient13521" id="linearGradient3174" gradientUnits="userSpaceOnUse" x1="61.9" y1="985.7" x2="61.9" y2="1041"/>
    <linearGradient y2="138.7" x2="65.9" y1="51.9" x1="65.9" gradientTransform="translate(0,924.36218)" gradientUnits="userSpaceOnUse" id="linearGradient14126-8" xlink:href="#linearGradient13521-8"/>
    <linearGradient id="linearGradient13521-8">
      <stop offset="0" id="stop13523-1" class="s0"/>
      <stop id="stop13547-1" offset="1" class="s1"/>
    </linearGradient>
    <filter color-interpolation-filters="sRGB" id="filter14001-47">
      <feFlood id="feFlood14003-3" flood-opacity="0.4" flood-color="rgb(0,0,0)" result="flood"/>
      <feComposite in2="SourceGraphic" id="feComposite14005-6" in="flood" operator="in" result="composite1"/>
      <feGaussianBlur id="feGaussianBlur14007-3" stdDeviation="2.4" result="blur"/>
      <feOffset id="feOffset14009-7" dx="0" dy="5" result="offset"/>
      <feComposite in2="offset" id="feComposite14011-8" in="SourceGraphic" operator="over" result="composite2"/>
    </filter>
    <linearGradient xlink:href="#linearGradient13521-6" id="linearGradient3491" gradientUnits="userSpaceOnUse" x1="61.9" y1="985.7" x2="61.9" y2="1041"/>
    <linearGradient id="linearGradient13521-6">
      <stop offset="0" id="stop13523-2" class="s0"/>
      <stop id="stop13547-2" offset="1" class="s1"/>
    </linearGradient>
    <filter id="filter14001-9" color-interpolation-filters="sRGB">
      <feFlood id="feFlood14003-4" flood-opacity="0.4" flood-color="rgb(0,0,0)" result="flood"/>
      <feComposite in2="SourceGraphic" id="feComposite14005-7" in="flood" operator="in" result="composite1"/>
      <feGaussianBlur id="feGaussianBlur14007-1" stdDeviation="2.4" result="blur"/>
      <feOffset id="feOffset14009-9" dx="0" dy="5" result="offset"/>
      <feComposite in2="offset" id="feComposite14011-0" in="SourceGraphic" operator="over" result="composite2"/>
    </filter>
    <linearGradient y2="1041" x2="61.9" y1="985.7" x1="61.9" gradientUnits="userSpaceOnUse" id="linearGradient4984" xlink:href="#linearGradient13521-6"/>
    <linearGradient xlink:href="#linearGradient13521-5" id="linearGradient3495" gradientUnits="userSpaceOnUse" gradientTransform="translate(0,924.36218)" x1="65.9" y1="51.9" x2="65.9" y2="138.7"/>
    <linearGradient id="linearGradient13521-5">
      <stop offset="0" id="stop13523-8" style="stop-color:#5e99d3;stop-opacity:1"/>
      <stop id="stop13547-9" offset="1" style="stop-color:#fbfbfb;stop-opacity:1"/>
    </linearGradient>
    <filter color-interpolation-filters="sRGB" id="filter14001-1">
      <feFlood id="feFlood14003-2" flood-opacity="0.4" flood-color="rgb(0,0,0)" result="flood"/>
      <feComposite in2="SourceGraphic" id="feComposite14005-4" in="flood" operator="in" result="composite1"/>
      <feGaussianBlur id="feGaussianBlur14007-7" stdDeviation="2.4" result="blur"/>
      <feOffset id="feOffset14009-71" dx="0" dy="5" result="offset"/>
      <feComposite in2="offset" id="feComposite14011-9" in="SourceGraphic" operator="over" result="composite2"/>
    </filter>
    <linearGradient y2="138.7" x2="65.9" y1="51.9" x1="65.9" gradientTransform="translate(0,924.36218)" gradientUnits="userSpaceOnUse" id="linearGradient4289" xlink:href="#linearGradient13521-5"/>
    <linearGradient xlink:href="#linearGradient13521-5" id="linearGradient4834" gradientUnits="userSpaceOnUse" x1="61.9" y1="985.7" x2="61.9" y2="1041"/>
  </defs>
  <metadata id="metadata12736"/>
  <path id="path14673" d="m13.5 10c-6.9 0-7 0-7 0" style="fill:none;stroke:#367cc5"/>
  <g id="g4836">
    <path d="m57.8 976.1-3.1-6.9-18.5 0 0 52 55.4 0 0-45.1z" id="rect12743" transform="matrix(0.26662332,0,0,0.24958583,-7.0372301,-238.38782)" style="fill:url(#linearGradient4289);filter:url(#filter14001-1);stroke-linejoin:round;stroke-miterlimit:4;stroke-width:3.9;stroke:#367dc6"/>
    <path d="m28.4 982.9c71.4 0 72 0.2 72 0.2l-7.7 36.1-56.4 0.2z" id="path12741" transform="matrix(0.26235675,0,0,0.23587139,-6.8989859,-223.8197)" style="fill:url(#linearGradient4834);filter:url(#filter14001-9);stroke-linejoin:round;stroke-miterlimit:4;stroke-width:3.6;stroke:#367dc6"/>
  </g>
  <g id="g3305" transform="translate(-0.8486669,-0.590344)">
    <rect id="rect4185" width="9.3" height="8.2" x="10.9" y="10.9" style="fill:#fff;stroke-width:0.2;stroke:#fff"/>
    <g id="g3302">
      <path id="path3388" d="m19 15.2v2.3c0 0.7-0.6 1.3-1.3 1.3h-5.3c-0.7 0-1.3-0.6-1.3-1.3v-5c0-0.7 0.6-1.3 1.3-1.3h5.3c0.3 0 0.5 0.1 0.7 0.2 0.2-0.2 0.5-0.3 0.8-0.3 0.3 0 0.7 0.1 0.9 0.4l0.2 0.2v-0.5c0-0.7-0.6-1.3-1.3-1.3h-7.9c-0.7 0-1.3 0.6-1.3 1.3v7.6c0 0.7 0.6 1.3 1.3 1.3h7.9c0.7 0 1.3-0.6 1.3-1.3v-4.8l-1.3 1.3z" fill="#999"/>
    </g>
    <path d="m20.1 12.4-0.5-0.4c-0.3-0.3-0.7-0.3-0.9 0l-4 3.8-1.5-1.4c-0.3-0.2-0.7-0.2-0.9 0l-0.5 0.4c-0.3 0.3-0.3 0.6 0 0.9l2.4 2.3c0.3 0.3 0.7 0.3 0.9 0l4.9-4.7c0.3-0.3 0.3-0.6 0-0.9z" id="path3390" fill="#76a1f0"/>
  </g>
</svg>
