<?xml version="1.0" encoding="UTF-8" standalone="no"?>
<svg
   xmlns:dc="http://purl.org/dc/elements/1.1/"
   xmlns:cc="http://creativecommons.org/ns#"
   xmlns:rdf="http://www.w3.org/1999/02/22-rdf-syntax-ns#"
   xmlns:svg="http://www.w3.org/2000/svg"
   xmlns="http://www.w3.org/2000/svg"
   xmlns:sodipodi="http://sodipodi.sourceforge.net/DTD/sodipodi-0.dtd"
   xmlns:inkscape="http://www.inkscape.org/namespaces/inkscape"
   width="20"
   height="20"
   version="1.1"
   id="svg3071"
   inkscape:version="0.48.4 r9939"
   sodipodi:docname="outcome.svg">
  <metadata
     id="metadata3085">
    <rdf:RDF>
      <cc:Work
         rdf:about="">
        <dc:format>image/svg+xml</dc:format>
        <dc:type
           rdf:resource="http://purl.org/dc/dcmitype/StillImage" />
      </cc:Work>
    </rdf:RDF>
  </metadata>
  <defs
     id="defs3083" />
  <sodipodi:namedview
     pagecolor="#ffffff"
     bordercolor="#666666"
     borderopacity="1"
     objecttolerance="10"
     gridtolerance="10"
     guidetolerance="10"
     inkscape:pageopacity="0"
     inkscape:pageshadow="2"
     inkscape:window-width="1920"
     inkscape:window-height="1036"
     id="namedview3081"
     showgrid="false"
     inkscape:zoom="11.8"
     inkscape:cx="-4.9576271"
     inkscape:cy="10"
     inkscape:window-x="1920"
     inkscape:window-y="22"
     inkscape:window-maximized="1"
     inkscape:current-layer="svg3071" />
  <g
     transform="translate(0,-1032.3622)"
     id="g3073"
     style="fill:#999999;fill-opacity:1">
    <g
       transform="matrix(0.16374653,0,0,0.16761082,-0.47977792,876.702)"
       id="g3075"
       style="fill:#999999;fill-opacity:1">
      <rect
         y="962.2"
         x="37.6"
         height="50.9"
         width="52.6"
         fill="#5f98d3"
         id="rect3077"
         style="fill:#999999;fill-opacity:1" />
      <path
         d="M86.9 958.5H41.1c-4.2 0-7.6 3.4-7.6 7.5v44.7c0 4.1 3.4 7.5 7.6 7.5h45.8c4.2 0 7.6-3.4 7.6-7.5v-44.7c0-4.1-3.4-7.5-7.6-7.5zm0 44.7c0 4.1-3.4 7.5-7.6 7.5h-30.5c-4.2 0-7.6-3.4-7.6-7.5v-29.8c0-4.1 3.4-7.5 7.6-7.5h30.5c4.2 0 7.6 3.4 7.6 7.5v29.8z"
         fill="#999"
         id="path3079"
         style="fill:#999999;fill-opacity:1" />
    </g>
  </g>
</svg>
