<svg xmlns:svg="http://www.w3.org/2000/svg" xmlns="http://www.w3.org/2000/svg" width="20" height="20" version="1.1"><g transform="translate(0,-1032.3622)"><g transform="matrix(0.16374539,0,0,0.16761082,-0.47970496,876.702)"><rect y="964.4" x="40.1" height="48.6" width="53.5" style="fill:#fff;stroke:#fff"/><path d="m86.9 989.9v13.4c0 4.1-3.4 7.5-7.6 7.5H48.7c-4.2 0-7.6-3.4-7.6-7.5v-29.8c0-4.1 3.4-7.5 7.6-7.5H79.3c1.5 0 3.1 0.4 4.2 1.1 1.1-1.1 3.1-1.5 4.6-1.5 1.9 0 3.8 0.7 5.3 2.2l1.1 1.1v-3c0-4.1-3.4-7.5-7.6-7.5H41.1c-4.2 0-7.6 3.4-7.6 7.5v44.7c0 4.1 3.4 7.5 7.6 7.5H86.9c4.2 0 7.6-3.4 7.6-7.5v-28.3l-7.6 7.5z" fill="#999"/><path d="m93.4 973.1-2.7-2.6c-1.5-1.5-3.8-1.5-5.3 0l-22.9 22.4-8.4-8.2c-1.5-1.1-3.8-1.1-5.3 0l-2.7 2.6c-1.5 1.5-1.5 3.7 0 5.2l13.7 13.4c1.5 1.5 3.8 1.5 5.3 0L93.4 978.3c1.5-1.5 1.5-3.7 0-5.2z" fill="#5f98d3"/></g></g></svg>