<svg xmlns:svg="http://www.w3.org/2000/svg" xmlns="http://www.w3.org/2000/svg" width="20" height="20" version="1.1"><g transform="translate(0,-1032.3622)"><g transform="matrix(0.16374653,0,0,0.16761082,-0.47977792,876.702)"><rect y="962.2" x="37.6" height="50.9" width="52.6" fill="#5f98d3"/><path d="M86.9 958.5H41.1c-4.2 0-7.6 3.4-7.6 7.5v44.7c0 4.1 3.4 7.5 7.6 7.5h45.8c4.2 0 7.6-3.4 7.6-7.5v-44.7c0-4.1-3.4-7.5-7.6-7.5zm0 44.7c0 4.1-3.4 7.5-7.6 7.5h-30.5c-4.2 0-7.6-3.4-7.6-7.5v-29.8c0-4.1 3.4-7.5 7.6-7.5h30.5c4.2 0 7.6 3.4 7.6 7.5v29.8z" fill="#999"/></g></g></svg>